<?xml version="1.0" encoding="UTF-8" standalone="no"?>
<!-- Created with Inkscape (http://www.inkscape.org/) -->

<svg
   sodipodi:docname="Ghoster.svg"
   width="85.946907mm"
   height="25.777201mm"
   viewBox="0 0 85.946907 25.777201"
   version="1.1"
   id="svg2376"
   inkscape:version="1.1.1 (3bf5ae0d25, 2021-09-20)"
   xmlns:inkscape="http://www.inkscape.org/namespaces/inkscape"
   xmlns:sodipodi="http://sodipodi.sourceforge.net/DTD/sodipodi-0.dtd"
   xmlns="http://www.w3.org/2000/svg"
   xmlns:svg="http://www.w3.org/2000/svg">
  <sodipodi:namedview
     id="namedview2378"
     pagecolor="#ffffff"
     bordercolor="#666666"
     borderopacity="1.0"
     inkscape:pageshadow="2"
     inkscape:pageopacity="0.0"
     inkscape:pagecheckerboard="0"
     inkscape:document-units="mm"
     showgrid="false"
     inkscape:zoom="2.5620932"
     inkscape:cx="150.46291"
     inkscape:cy="16.197693"
     inkscape:window-width="1920"
     inkscape:window-height="1017"
     inkscape:window-x="-8"
     inkscape:window-y="-8"
     inkscape:window-maximized="1"
     inkscape:current-layer="layer1"
     showguides="true"
     inkscape:guide-bbox="true" />
  <defs
     id="defs2373">
    <filter
       id="filter9483"
       x="-0.12956159"
       y="-0.20380442"
       width="1.2591232"
       height="1.4076088">
      <feGaussianBlur
         stdDeviation="0.5997225"
         id="feGaussianBlur2918" />
    </filter>
    <marker
       style="overflow:visible"
       id="Arrow1Lend"
       refX="0"
       refY="0"
       orient="auto"
       inkscape:stockid="Arrow1Lend"
       inkscape:isstock="true">
      <path
         transform="matrix(-0.8,0,0,-0.8,-10,0)"
         style="fill:context-stroke;fill-rule:evenodd;stroke:context-stroke;stroke-width:1pt"
         d="M 0,0 5,-5 -12.5,0 5,5 Z"
         id="path2474" />
    </marker>
    <clipPath
       clipPathUnits="userSpaceOnUse"
       id="clipPath28416">
      <rect
         style="opacity:0.58;fill:#ffffff;fill-rule:evenodd;stroke-width:0.487738"
         id="rect28418"
         width="46"
         height="35"
         x="47"
         y="65" />
    </clipPath>
    <marker
       style="overflow:visible"
       id="Arrow2Mend"
       refX="0"
       refY="0"
       orient="auto"
       inkscape:stockid="Arrow2Mend"
       inkscape:isstock="true">
      <path
         transform="scale(-0.6)"
         d="M 8.7185878,4.0337352 -2.2072895,0.01601326 8.7185884,-4.0017078 c -1.7454984,2.3720609 -1.7354408,5.6174519 -6e-7,8.035443 z"
         style="fill:context-stroke;fill-rule:evenodd;stroke:context-stroke;stroke-width:0.625;stroke-linejoin:round"
         id="path5759" />
    </marker>
    <marker
       style="overflow:visible"
       id="marker1585"
       refX="0"
       refY="0"
       orient="auto"
       inkscape:stockid="Arrow2Mend"
       inkscape:isstock="true">
      <path
         transform="scale(-0.6)"
         d="M 8.7185878,4.0337352 -2.2072895,0.01601326 8.7185884,-4.0017078 c -1.7454984,2.3720609 -1.7354408,5.6174519 -6e-7,8.035443 z"
         style="fill:context-stroke;fill-rule:evenodd;stroke:context-stroke;stroke-width:0.625;stroke-linejoin:round"
         id="path1583" />
    </marker>
  </defs>
  <g
     inkscape:label="Layer 1"
     inkscape:groupmode="layer"
     id="layer1"
     transform="translate(-42.833283,-131.72377)">
    <path
       d="m 50.782041,150.82248 h 27.3438"
       style="display:inline;fill:none;stroke:#262626;stroke-width:0.198437;stroke-linecap:square;stroke-linejoin:round;stroke-miterlimit:10;stroke-dasharray:none;stroke-opacity:1"
       id="path1088" />
    <path
       d="m 50.782041,132.69698 h 27.3438"
       style="display:inline;fill:none;stroke:#262626;stroke-width:0.198437;stroke-linecap:square;stroke-linejoin:round;stroke-miterlimit:10;stroke-dasharray:none;stroke-opacity:1"
       id="path1090" />
    <path
       d="m 54.157941,150.82248 v -0.466"
       style="display:inline;fill:none;stroke:#262626;stroke-width:0.198437;stroke-linecap:square;stroke-linejoin:round;stroke-miterlimit:10;stroke-dasharray:none;stroke-opacity:1"
       id="path1092" />
    <path
       d="m 60.993041,150.82248 v -0.466"
       style="display:inline;fill:none;stroke:#262626;stroke-width:0.198437;stroke-linecap:square;stroke-linejoin:round;stroke-miterlimit:10;stroke-dasharray:none;stroke-opacity:1"
       id="path1094" />
    <path
       d="m 67.829841,150.82248 v -0.466"
       style="display:inline;fill:none;stroke:#262626;stroke-width:0.198437;stroke-linecap:square;stroke-linejoin:round;stroke-miterlimit:10;stroke-dasharray:none;stroke-opacity:1"
       id="path1096" />
    <path
       d="m 74.665841,150.82248 v -0.466"
       style="display:inline;fill:none;stroke:#262626;stroke-width:0.198437;stroke-linecap:square;stroke-linejoin:round;stroke-miterlimit:10;stroke-dasharray:none;stroke-opacity:1"
       id="path1098" />
    <path
       d="m 54.157941,132.69738 v 0.4657"
       style="display:inline;fill:none;stroke:#262626;stroke-width:0.198437;stroke-linecap:square;stroke-linejoin:round;stroke-miterlimit:10;stroke-dasharray:none;stroke-opacity:1"
       id="path1100" />
    <path
       d="m 60.993041,132.69738 v 0.4657"
       style="display:inline;fill:none;stroke:#262626;stroke-width:0.198437;stroke-linecap:square;stroke-linejoin:round;stroke-miterlimit:10;stroke-dasharray:none;stroke-opacity:1"
       id="path1102" />
    <path
       d="m 67.829841,132.69738 v 0.4657"
       style="display:inline;fill:none;stroke:#262626;stroke-width:0.198437;stroke-linecap:square;stroke-linejoin:round;stroke-miterlimit:10;stroke-dasharray:none;stroke-opacity:1"
       id="path1104" />
    <path
       d="m 74.665841,132.69738 v 0.4657"
       style="display:inline;fill:none;stroke:#262626;stroke-width:0.198437;stroke-linecap:square;stroke-linejoin:round;stroke-miterlimit:10;stroke-dasharray:none;stroke-opacity:1"
       id="path1106" />
    <text
       style="font-variant:normal;font-weight:normal;font-size:2.39889px;font-family:Whitney;writing-mode:lr-tb;display:inline;fill:#262626;fill-opacity:1;fill-rule:nonzero;stroke:none;stroke-width:0.198437"
       id="text1112"
       x="50.189472"
       y="154.07784"
       xml:space="preserve"><tspan
         x="50.189472"
         y="154.07784"
         id="tspan1110"
         sodipodi:role="line"
         style="font-family:Whitney;stroke-width:0.352778">1287.04</tspan></text>
    <text
       style="font-variant:normal;font-weight:normal;font-size:2.39889px;font-family:Whitney;writing-mode:lr-tb;display:inline;fill:#262626;fill-opacity:1;fill-rule:nonzero;stroke:none;stroke-width:0.198437"
       id="text2058"
       x="63.906147"
       y="154.07935"
       xml:space="preserve"><tspan
         x="63.906147"
         y="154.07935"
         id="tspan6487"
         sodipodi:role="line"
         style="font-family:Whitney;stroke-width:0.352778">1287.06</tspan></text>
    <text
       style="font-style:normal;font-variant:normal;font-weight:normal;font-stretch:normal;font-size:2.64583px;line-height:normal;font-family:Whitney;font-variant-ligatures:normal;font-variant-position:normal;font-variant-caps:normal;font-variant-numeric:normal;font-variant-alternates:normal;font-variant-east-asian:normal;font-feature-settings:normal;font-variation-settings:normal;text-indent:0;text-align:start;text-decoration-line:none;text-decoration-style:solid;text-decoration-color:#000000;letter-spacing:normal;word-spacing:normal;text-transform:none;writing-mode:lr-tb;direction:ltr;text-orientation:mixed;dominant-baseline:auto;baseline-shift:baseline;text-anchor:start;white-space:normal;shape-padding:0;shape-margin:0;inline-size:0;display:inline;vector-effect:none;fill:#262626;fill-opacity:1;fill-rule:nonzero;stroke:none;stroke-width:0.198437;stroke-linecap:butt;stroke-linejoin:miter;stroke-miterlimit:4;stroke-dasharray:none;stroke-dashoffset:0;stroke-opacity:1;-inkscape-stroke:none;stop-color:#000000"
       id="text1116"
       x="15.998487"
       y="64.488602"
       xml:space="preserve"
       transform="translate(38.971041,92.528182)"><tspan
         x="15.998487"
         y="64.488602"
         id="tspan1114"
         sodipodi:role="line"
         style="font-style:normal;font-variant:normal;font-weight:normal;font-stretch:normal;font-size:2.64583px;line-height:normal;font-family:Whitney;font-variant-ligatures:normal;font-variant-position:normal;font-variant-caps:normal;font-variant-numeric:normal;font-variant-alternates:normal;font-variant-east-asian:normal;font-feature-settings:normal;font-variation-settings:normal;text-indent:0;text-align:start;text-decoration-line:none;text-decoration-style:solid;text-decoration-color:#000000;letter-spacing:normal;word-spacing:normal;text-transform:none;writing-mode:lr-tb;direction:ltr;text-orientation:mixed;dominant-baseline:auto;baseline-shift:baseline;text-anchor:start;white-space:normal;shape-padding:0;shape-margin:0;inline-size:0;vector-effect:none;fill:#262626;fill-opacity:1;stroke:none;stroke-width:0.198437;stroke-linecap:butt;stroke-linejoin:miter;stroke-miterlimit:4;stroke-dasharray:none;stroke-dashoffset:0;stroke-opacity:1;-inkscape-stroke:none;stop-color:#000000;stop-opacity:1">Frequency (cm<tspan
   style="font-style:normal;font-variant:normal;font-weight:normal;font-stretch:normal;font-size:65%;line-height:normal;font-family:Whitney;font-variant-ligatures:normal;font-variant-position:normal;font-variant-caps:normal;font-variant-numeric:normal;font-variant-alternates:normal;font-variant-east-asian:normal;font-feature-settings:normal;font-variation-settings:normal;text-indent:0;text-align:start;text-decoration-line:none;text-decoration-style:solid;text-decoration-color:#000000;letter-spacing:normal;word-spacing:normal;text-transform:none;writing-mode:lr-tb;direction:ltr;text-orientation:mixed;dominant-baseline:auto;baseline-shift:super;text-anchor:start;white-space:normal;shape-padding:0;shape-margin:0;inline-size:0;vector-effect:none;fill:#262626;fill-opacity:1;stroke:none;stroke-width:0.198437;stroke-linecap:butt;stroke-linejoin:miter;stroke-miterlimit:4;stroke-dasharray:none;stroke-dashoffset:0;stroke-opacity:1;-inkscape-stroke:none;stop-color:#000000;stop-opacity:1"
   id="tspan2164">-1</tspan>)</tspan></text>
    <path
       d="m 50.782041,150.82248 v -18.1255"
       style="display:inline;fill:none;stroke:#262626;stroke-width:0.198437;stroke-linecap:square;stroke-linejoin:round;stroke-miterlimit:10;stroke-dasharray:none;stroke-opacity:1"
       id="path1126" />
    <path
       d="m 78.125841,150.82248 v -18.1255"
       style="display:inline;fill:none;stroke:#262626;stroke-width:0.198437;stroke-linecap:square;stroke-linejoin:round;stroke-miterlimit:10;stroke-dasharray:none;stroke-opacity:1"
       id="path1128" />
    <path
       d="m 50.782041,148.08648 h 0.466"
       style="display:inline;fill:none;stroke:#262626;stroke-width:0.198437;stroke-linecap:square;stroke-linejoin:round;stroke-miterlimit:10;stroke-dasharray:none;stroke-opacity:1"
       id="path1130" />
    <path
       d="m 50.782041,141.24698 h 0.466"
       style="display:inline;fill:none;stroke:#262626;stroke-width:0.198437;stroke-linecap:square;stroke-linejoin:round;stroke-miterlimit:10;stroke-dasharray:none;stroke-opacity:1"
       id="path1132" />
    <path
       d="m 50.782041,134.40738 h 0.466"
       style="display:inline;fill:none;stroke:#262626;stroke-width:0.198437;stroke-linecap:square;stroke-linejoin:round;stroke-miterlimit:10;stroke-dasharray:none;stroke-opacity:1"
       id="path1134" />
    <path
       d="m 78.125841,148.08648 h -0.466"
       style="display:inline;fill:none;stroke:#262626;stroke-width:0.198437;stroke-linecap:square;stroke-linejoin:round;stroke-miterlimit:10;stroke-dasharray:none;stroke-opacity:1"
       id="path1136" />
    <path
       d="m 78.125841,141.24698 h -0.466"
       style="display:inline;fill:none;stroke:#262626;stroke-width:0.198437;stroke-linecap:square;stroke-linejoin:round;stroke-miterlimit:10;stroke-dasharray:none;stroke-opacity:1"
       id="path1138" />
    <path
       d="m 78.125841,134.40738 h -0.466"
       style="display:inline;fill:none;stroke:#262626;stroke-width:0.198437;stroke-linecap:square;stroke-linejoin:round;stroke-miterlimit:10;stroke-dasharray:none;stroke-opacity:1"
       id="path1140" />
    <text
       style="font-variant:normal;font-weight:normal;font-size:2.56259px;font-family:Whitney;writing-mode:lr-tb;display:inline;fill:#262626;fill-opacity:1;fill-rule:nonzero;stroke:none;stroke-width:0.198437"
       id="text1150"
       x="46.51923"
       y="149.03644"
       xml:space="preserve"><tspan
         x="46.51923"
         y="149.03644"
         id="tspan1144"
         sodipodi:role="line"
         style="font-family:Whitney;stroke-width:0.352778">0.6</tspan></text>
    <text
       style="font-variant:normal;font-weight:normal;font-size:2.56259px;font-family:Whitney;writing-mode:lr-tb;display:inline;fill:#262626;fill-opacity:1;fill-rule:nonzero;stroke:none;stroke-width:0.198437"
       id="text7830"
       x="46.510654"
       y="142.19467"
       xml:space="preserve"><tspan
         x="46.510654"
         y="142.19467"
         id="tspan8918"
         sodipodi:role="line"
         style="font-family:Whitney;stroke-width:0.352778">0.8</tspan></text>
    <text
       style="font-variant:normal;font-weight:normal;font-size:2.56259px;font-family:Whitney;writing-mode:lr-tb;display:inline;fill:#262626;fill-opacity:1;fill-rule:nonzero;stroke:none;stroke-width:0.198437"
       id="text9321"
       x="48.916462"
       y="135.35527"
       xml:space="preserve"><tspan
         x="48.916462"
         y="135.35527"
         id="tspan7011"
         sodipodi:role="line"
         style="font-family:Whitney;stroke-width:0.352778">1</tspan></text>
    <text
       style="font-style:normal;font-variant:normal;font-weight:normal;font-stretch:normal;font-size:2.39889px;line-height:normal;font-family:Whitney;font-variant-ligatures:normal;font-variant-position:normal;font-variant-caps:normal;font-variant-numeric:normal;font-variant-alternates:normal;font-variant-east-asian:normal;font-feature-settings:normal;font-variation-settings:normal;text-indent:0;text-align:start;text-decoration-line:none;text-decoration-style:solid;text-decoration-color:#000000;letter-spacing:normal;word-spacing:normal;text-transform:none;writing-mode:lr-tb;direction:ltr;text-orientation:mixed;dominant-baseline:auto;baseline-shift:baseline;text-anchor:start;white-space:normal;shape-padding:0;shape-margin:0;inline-size:0;display:inline;opacity:1;vector-effect:none;fill:#262626;fill-opacity:1;fill-rule:nonzero;stroke:none;stroke-width:0.352778;stroke-linecap:butt;stroke-linejoin:miter;stroke-miterlimit:4;stroke-dasharray:none;stroke-dashoffset:0;stroke-opacity:1;-inkscape-stroke:none;stop-color:#000000;stop-opacity:1"
       id="text1160"
       x="31.240084"
       y="46.060749"
       xml:space="preserve"
       transform="translate(35.932868,89.956993)"><tspan
         x="31.240084"
         y="46.060749"
         sodipodi:role="line"
         style="font-style:normal;font-variant:normal;font-weight:normal;font-stretch:normal;font-size:2.39889px;line-height:normal;font-family:Whitney;font-variant-ligatures:normal;font-variant-position:normal;font-variant-caps:normal;font-variant-numeric:normal;font-variant-alternates:normal;font-variant-east-asian:normal;font-feature-settings:normal;font-variation-settings:normal;text-indent:0;text-align:start;text-decoration-line:none;text-decoration-style:solid;text-decoration-color:#000000;letter-spacing:normal;word-spacing:normal;text-transform:none;writing-mode:lr-tb;direction:ltr;text-orientation:mixed;dominant-baseline:auto;baseline-shift:baseline;text-anchor:start;white-space:normal;shape-padding:0;shape-margin:0;inline-size:0;vector-effect:none;fill:#262626;fill-opacity:1;stroke:none;stroke-width:0.352778;stroke-linecap:butt;stroke-linejoin:miter;stroke-miterlimit:4;stroke-dasharray:none;stroke-dashoffset:0;stroke-opacity:1;-inkscape-stroke:none;stop-color:#000000;stop-opacity:1"
         id="tspan9322">172 MHz</tspan><tspan
         x="31.240084"
         y="49.059361"
         sodipodi:role="line"
         style="font-style:normal;font-variant:normal;font-weight:normal;font-stretch:normal;font-size:2.39889px;line-height:normal;font-family:Whitney;font-variant-ligatures:normal;font-variant-position:normal;font-variant-caps:normal;font-variant-numeric:normal;font-variant-alternates:normal;font-variant-east-asian:normal;font-feature-settings:normal;font-variation-settings:normal;text-indent:0;text-align:start;text-decoration-line:none;text-decoration-style:solid;text-decoration-color:#000000;letter-spacing:normal;word-spacing:normal;text-transform:none;writing-mode:lr-tb;direction:ltr;text-orientation:mixed;dominant-baseline:auto;baseline-shift:baseline;text-anchor:start;white-space:normal;shape-padding:0;shape-margin:0;inline-size:0;vector-effect:none;fill:#262626;fill-opacity:1;stroke:none;stroke-width:0.352778;stroke-linecap:butt;stroke-linejoin:miter;stroke-miterlimit:4;stroke-dasharray:none;stroke-dashoffset:0;stroke-opacity:1;-inkscape-stroke:none;stop-color:#000000;stop-opacity:1"
         id="tspan4548">FWHM</tspan></text>
    <path
       d="m 74.282841,133.40468 v -0.6804 l -1.449,0.7595 -0.724,-0.0213 -0.725,0.4912 -0.724,1.4179 -0.724,0.0289 v 0.4544 l -0.724,1.6875 -0.726,-0.2229 -1.448,0.5043 -0.725,2.0677 v 4.3858 l -1.4476,3.0612 v 1.242 l -1.449,-0.987 v -3.2896 l -0.7239,-4.0623 -1.449,-2.3125 -0.724,-0.8892 -0.725,0.1896 v -1.257 l -0.724,0.3411 -0.724,0.3792 -0.725,-0.7905 -0.724,-0.9742 -0.725,0.5333 -0.724,-0.7744 -0.724,-0.3696 -0.725,0.711 -0.724,0.0325"
       style="display:inline;fill:none;stroke:#377eb8;stroke-width:0.198437;stroke-linecap:butt;stroke-linejoin:round;stroke-miterlimit:10;stroke-dasharray:none;stroke-opacity:1"
       id="path1162" />
    <path
       d="m 74.282841,134.48928 -0.105,0.0117 -0.106,0.0122 -0.106,0.0128 -0.105,0.0128 -0.106,0.0133 -0.105,0.0142 -0.106,0.0143 -0.105,0.0146 -0.106,0.0154 -0.105,0.0159 -0.105,0.0161 -0.107,0.0168 -0.104,0.0178 -0.106,0.018 -0.105,0.0189 -0.107,0.0194 -0.105,0.0202 -0.106,0.0211 -0.106,0.0219 -0.105,0.0223 -0.106,0.0234 -0.105,0.0244 -0.106,0.0254 -0.105,0.0261 -0.106,0.0275 -0.105,0.0285 -0.106,0.0297 -0.105,0.031 -0.106,0.0322 -0.106,0.0336 -0.104,0.0349 -0.107,0.0368 -0.105,0.0381 -0.106,0.0399 -0.106,0.0417 -0.105,0.0438 -0.106,0.0458 -0.105,0.0477 -0.106,0.0504 -0.105,0.0527 -0.106,0.0552 -0.105,0.0581 -0.106,0.0609 -0.106,0.0641 -0.104,0.0676 -0.106,0.0709 -0.105,0.0751 -0.106,0.0789 -0.106,0.0832 -0.106,0.088 -0.106,0.0929 -0.105,0.0983 -0.106,0.1039 -0.105,0.1101 -0.106,0.1166 -0.105,0.1236 -0.106,0.1313 -0.105,0.1394 -0.106,0.1477 -0.106,0.1574 -0.105,0.1673 -0.105,0.1781 -0.105,0.1893 -0.107,0.2019 -0.105,0.2151 -0.106,0.2293 -0.106,0.2438 -0.105,0.2604 -0.106,0.2768 -0.105,0.295 -0.106,0.3136 -0.105,0.3333 -0.106,0.3537 -0.105,0.3746 -0.106,0.3961 -0.106,0.4171 -0.105,0.438 -0.106,0.4577 -0.1043,0.4762 -0.1061,0.4919 -0.1061,0.5042 -0.105,0.5125 -0.1061,0.5149 -0.105,0.5103 -0.1061,0.4979 -0.105,0.4757 -0.1061,0.445 -0.1051,0.402 -0.106,0.349 -0.1061,0.286 -0.1051,0.215 -0.106,0.136 -0.1051,0.052 -0.106,-0.032 -0.1051,-0.116 -0.105,-0.197 -0.1061,-0.27 -0.1051,-0.335 -0.106,-0.39 -0.1051,-0.435 -0.106,-0.4699 -0.1051,-0.4935 -0.1061,-0.5082 -0.105,-0.5142 -0.1061,-0.5134 -0.1061,-0.507 -0.105,-0.4952 -0.1061,-0.48 -0.105,-0.4625 -0.1061,-0.4427 -0.104,-0.4224 -0.1071,-0.4007 -0.1051,-0.3799 -0.105,-0.3587 -0.1061,-0.3379 -0.105,-0.3184 -0.1061,-0.2994 -0.105,-0.2811 -0.1061,-0.2641 -0.1051,-0.2476 -0.106,-0.2327 -0.1061,-0.2184 -0.1051,-0.2049 -0.106,-0.1924 -0.1051,-0.1808 -0.1061,-0.1697 -0.105,-0.1598 -0.105,-0.1499 -0.1061,-0.1414 -0.1051,-0.133 -0.106,-0.1254 -0.1051,-0.1183 -0.1061,-0.1116 -0.105,-0.1055 -0.1061,-0.0993 -0.105,-0.0944 -0.1061,-0.0891 -0.105,-0.0843 -0.1061,-0.0799 -0.1051,-0.076 -0.106,-0.0719 -0.1051,-0.0684 -0.1061,-0.065 -0.106,-0.0616 -0.1051,-0.0586 -0.105,-0.056 -0.1061,-0.0533 -0.105,-0.0507 -0.1061,-0.0485 -0.1061,-0.0463 -0.105,-0.0441 -0.1051,-0.0422 -0.106,-0.0404 -0.1061,-0.0387 -0.1051,-0.0369 -0.105,-0.0354 -0.1061,-0.034 -0.1061,-0.0326 -0.105,-0.0311 -0.1061,-0.0301 -0.105,-0.0286 -0.1061,-0.0276 -0.105,-0.0265 -0.1061,-0.0257 -0.1051,-0.0247 -0.106,-0.0236 -0.1051,-0.0227 -0.1061,-0.0219 -0.105,-0.0209 -0.1061,-0.0207 -0.105,-0.0197 -0.1061,-0.0189 -0.105,-0.0183 -0.1061,-0.0177 -0.1051,-0.0172 -0.106,-0.0162 -0.1051,-0.016 -0.1061,-0.0155 -0.105,-0.0151 -0.1061,-0.0142 -0.105,-0.0142 -0.1061,-0.0131 -0.105,-0.0133 -0.1061,-0.0127 -0.1051,-0.0123 -0.106,-0.0118 -0.1051,-0.0116 -0.106,-0.0115 -0.1051,-0.0106 -0.1061,-0.0108 -0.105,-0.0101 -0.1061,-0.01 -0.105,-0.01 -0.1061,-0.009 -0.1051,-0.009 -0.106,-0.009 -0.1051,-0.009 -0.105,-0.008 -0.1061,-0.008"
       style="display:inline;fill:none;stroke:#e41a1c;stroke-width:0.198437;stroke-linecap:butt;stroke-linejoin:round;stroke-miterlimit:10;stroke-dasharray:none;stroke-opacity:1"
       id="path1164" />
    <path
       style="display:inline;fill:none;stroke:#000000;stroke-width:0.198437;stroke-linecap:butt;stroke-linejoin:miter;stroke-miterlimit:4;stroke-dasharray:none;stroke-opacity:1;marker-end:url(#Arrow2Mend)"
       d="m 59.537841,142.50558 h 2.4655"
       id="path5632" />
    <path
       style="display:inline;fill:none;stroke:#000000;stroke-width:0.198437;stroke-linecap:butt;stroke-linejoin:miter;stroke-miterlimit:4;stroke-dasharray:none;stroke-opacity:1;marker-end:url(#Arrow2Mend)"
       d="m 69.586841,142.50558 h -2.465"
       id="path6080" />
    <text
       transform="rotate(-90,67.114211,29.732571)"
       style="font-style:normal;font-variant:normal;font-weight:normal;font-stretch:normal;font-size:2.65304px;line-height:normal;font-family:Whitney;font-variant-ligatures:normal;font-variant-position:normal;font-variant-caps:normal;font-variant-numeric:normal;font-variant-alternates:normal;font-variant-east-asian:normal;font-feature-settings:normal;font-variation-settings:normal;text-indent:0;text-align:start;text-decoration-line:none;text-decoration-style:solid;text-decoration-color:#000000;letter-spacing:normal;word-spacing:normal;text-transform:none;writing-mode:lr-tb;direction:ltr;text-orientation:mixed;dominant-baseline:auto;baseline-shift:baseline;text-anchor:start;white-space:normal;shape-padding:0;shape-margin:0;inline-size:0;display:inline;vector-effect:none;fill:#262626;fill-opacity:1;fill-rule:nonzero;stroke:none;stroke-width:0.198437;stroke-linecap:butt;stroke-linejoin:miter;stroke-miterlimit:4;stroke-dasharray:none;stroke-dashoffset:0;stroke-opacity:1;-inkscape-stroke:none;stop-color:#000000"
       id="text20207"
       x="-51.803547"
       y="7.2822404"
       xml:space="preserve"><tspan
         x="-51.803547"
         y="7.2822404"
         sodipodi:role="line"
         style="font-style:normal;font-variant:normal;font-weight:normal;font-stretch:normal;font-size:2.65304px;line-height:normal;font-family:Whitney;font-variant-ligatures:normal;font-variant-position:normal;font-variant-caps:normal;font-variant-numeric:normal;font-variant-alternates:normal;font-variant-east-asian:normal;font-feature-settings:normal;font-variation-settings:normal;text-indent:0;text-align:start;text-decoration-line:none;text-decoration-style:solid;text-decoration-color:#000000;letter-spacing:normal;word-spacing:normal;text-transform:none;writing-mode:lr-tb;direction:ltr;text-orientation:mixed;dominant-baseline:auto;baseline-shift:baseline;text-anchor:start;white-space:normal;shape-padding:0;shape-margin:0;inline-size:0;vector-effect:none;fill:#262626;fill-opacity:1;stroke:none;stroke-width:0.198437;stroke-linecap:butt;stroke-linejoin:miter;stroke-miterlimit:4;stroke-dasharray:none;stroke-dashoffset:0;stroke-opacity:1;-inkscape-stroke:none;stop-color:#000000;stop-opacity:1"
         id="tspan20205">Transmission</tspan></text>
    <path
       d="m 100.9705,150.82248 h 27.3438"
       style="display:inline;fill:none;stroke:#262626;stroke-width:0.198437;stroke-linecap:square;stroke-linejoin:round;stroke-miterlimit:10;stroke-dasharray:none;stroke-opacity:1"
       id="path2276" />
    <path
       d="m 100.9705,132.69698 h 27.3438"
       style="display:inline;fill:none;stroke:#262626;stroke-width:0.198437;stroke-linecap:square;stroke-linejoin:round;stroke-miterlimit:10;stroke-dasharray:none;stroke-opacity:1"
       id="path2278" />
    <path
       d="m 104.3464,150.82248 v -0.466"
       style="display:inline;fill:none;stroke:#262626;stroke-width:0.198437;stroke-linecap:square;stroke-linejoin:round;stroke-miterlimit:10;stroke-dasharray:none;stroke-opacity:1"
       id="path2280" />
    <path
       d="m 111.1815,150.82248 v -0.466"
       style="display:inline;fill:none;stroke:#262626;stroke-width:0.198437;stroke-linecap:square;stroke-linejoin:round;stroke-miterlimit:10;stroke-dasharray:none;stroke-opacity:1"
       id="path2282" />
    <path
       d="m 118.0183,150.82248 v -0.466"
       style="display:inline;fill:none;stroke:#262626;stroke-width:0.198437;stroke-linecap:square;stroke-linejoin:round;stroke-miterlimit:10;stroke-dasharray:none;stroke-opacity:1"
       id="path2284" />
    <path
       d="m 124.8543,150.82248 v -0.466"
       style="display:inline;fill:none;stroke:#262626;stroke-width:0.198437;stroke-linecap:square;stroke-linejoin:round;stroke-miterlimit:10;stroke-dasharray:none;stroke-opacity:1"
       id="path2286" />
    <path
       d="m 104.3464,132.69738 v 0.4657"
       style="display:inline;fill:none;stroke:#262626;stroke-width:0.198437;stroke-linecap:square;stroke-linejoin:round;stroke-miterlimit:10;stroke-dasharray:none;stroke-opacity:1"
       id="path2288" />
    <path
       d="m 111.1815,132.69738 v 0.4657"
       style="display:inline;fill:none;stroke:#262626;stroke-width:0.198437;stroke-linecap:square;stroke-linejoin:round;stroke-miterlimit:10;stroke-dasharray:none;stroke-opacity:1"
       id="path2290" />
    <path
       d="m 118.0183,132.69738 v 0.4657"
       style="display:inline;fill:none;stroke:#262626;stroke-width:0.198437;stroke-linecap:square;stroke-linejoin:round;stroke-miterlimit:10;stroke-dasharray:none;stroke-opacity:1"
       id="path2292" />
    <path
       d="m 124.8543,132.69738 v 0.4657"
       style="display:inline;fill:none;stroke:#262626;stroke-width:0.198437;stroke-linecap:square;stroke-linejoin:round;stroke-miterlimit:10;stroke-dasharray:none;stroke-opacity:1"
       id="path2294" />
    <text
       style="font-variant:normal;font-weight:normal;font-size:2.39889px;font-family:Whitney;writing-mode:lr-tb;display:inline;fill:#262626;fill-opacity:1;fill-rule:nonzero;stroke:none;stroke-width:0.198437"
       id="text2298"
       x="100.37793"
       y="154.07784"
       xml:space="preserve"><tspan
         x="100.37793"
         y="154.07784"
         id="tspan2296"
         sodipodi:role="line"
         style="font-family:Whitney;stroke-width:0.352778">1287.04</tspan></text>
    <text
       style="font-variant:normal;font-weight:normal;font-size:2.39889px;font-family:Whitney;writing-mode:lr-tb;display:inline;fill:#262626;fill-opacity:1;fill-rule:nonzero;stroke:none;stroke-width:0.198437"
       id="text2302"
       x="114.0946"
       y="154.07935"
       xml:space="preserve"><tspan
         x="114.0946"
         y="154.07935"
         id="tspan2300"
         sodipodi:role="line"
         style="font-family:Whitney;stroke-width:0.352778">1287.06</tspan></text>
    <text
       style="font-style:normal;font-variant:normal;font-weight:normal;font-stretch:normal;font-size:2.64583px;line-height:normal;font-family:Whitney;font-variant-ligatures:normal;font-variant-position:normal;font-variant-caps:normal;font-variant-numeric:normal;font-variant-alternates:normal;font-variant-east-asian:normal;font-feature-settings:normal;font-variation-settings:normal;text-indent:0;text-align:start;text-decoration-line:none;text-decoration-style:solid;text-decoration-color:#000000;letter-spacing:normal;word-spacing:normal;text-transform:none;writing-mode:lr-tb;direction:ltr;text-orientation:mixed;dominant-baseline:auto;baseline-shift:baseline;text-anchor:start;white-space:normal;shape-padding:0;shape-margin:0;inline-size:0;display:inline;vector-effect:none;fill:#262626;fill-opacity:1;fill-rule:nonzero;stroke:none;stroke-width:0.198437;stroke-linecap:butt;stroke-linejoin:miter;stroke-miterlimit:4;stroke-dasharray:none;stroke-dashoffset:0;stroke-opacity:1;-inkscape-stroke:none;stop-color:#000000"
       id="text2308"
       x="15.998487"
       y="64.488602"
       xml:space="preserve"
       transform="translate(89.159496,92.528182)"><tspan
         x="15.998487"
         y="64.488602"
         id="tspan2306"
         sodipodi:role="line"
         style="font-style:normal;font-variant:normal;font-weight:normal;font-stretch:normal;font-size:2.64583px;line-height:normal;font-family:Whitney;font-variant-ligatures:normal;font-variant-position:normal;font-variant-caps:normal;font-variant-numeric:normal;font-variant-alternates:normal;font-variant-east-asian:normal;font-feature-settings:normal;font-variation-settings:normal;text-indent:0;text-align:start;text-decoration-line:none;text-decoration-style:solid;text-decoration-color:#000000;letter-spacing:normal;word-spacing:normal;text-transform:none;writing-mode:lr-tb;direction:ltr;text-orientation:mixed;dominant-baseline:auto;baseline-shift:baseline;text-anchor:start;white-space:normal;shape-padding:0;shape-margin:0;inline-size:0;vector-effect:none;fill:#262626;fill-opacity:1;stroke:none;stroke-width:0.198437;stroke-linecap:butt;stroke-linejoin:miter;stroke-miterlimit:4;stroke-dasharray:none;stroke-dashoffset:0;stroke-opacity:1;-inkscape-stroke:none;stop-color:#000000;stop-opacity:1">Frequency (cm<tspan
   style="font-style:normal;font-variant:normal;font-weight:normal;font-stretch:normal;font-size:65%;line-height:normal;font-family:Whitney;font-variant-ligatures:normal;font-variant-position:normal;font-variant-caps:normal;font-variant-numeric:normal;font-variant-alternates:normal;font-variant-east-asian:normal;font-feature-settings:normal;font-variation-settings:normal;text-indent:0;text-align:start;text-decoration-line:none;text-decoration-style:solid;text-decoration-color:#000000;letter-spacing:normal;word-spacing:normal;text-transform:none;writing-mode:lr-tb;direction:ltr;text-orientation:mixed;dominant-baseline:auto;baseline-shift:super;text-anchor:start;white-space:normal;shape-padding:0;shape-margin:0;inline-size:0;vector-effect:none;fill:#262626;fill-opacity:1;stroke:none;stroke-width:0.198437;stroke-linecap:butt;stroke-linejoin:miter;stroke-miterlimit:4;stroke-dasharray:none;stroke-dashoffset:0;stroke-opacity:1;-inkscape-stroke:none;stop-color:#000000;stop-opacity:1"
   id="tspan2304">-1</tspan>)</tspan></text>
    <path
       d="m 100.9705,150.82248 v -18.1255"
       style="display:inline;fill:none;stroke:#262626;stroke-width:0.198437;stroke-linecap:square;stroke-linejoin:round;stroke-miterlimit:10;stroke-dasharray:none;stroke-opacity:1"
       id="path2310" />
    <path
       d="m 128.3143,150.82248 v -18.1255"
       style="display:inline;fill:none;stroke:#262626;stroke-width:0.198437;stroke-linecap:square;stroke-linejoin:round;stroke-miterlimit:10;stroke-dasharray:none;stroke-opacity:1"
       id="path2312" />
    <path
       d="m 100.9705,148.08648 h 0.466"
       style="display:inline;fill:none;stroke:#262626;stroke-width:0.198437;stroke-linecap:square;stroke-linejoin:round;stroke-miterlimit:10;stroke-dasharray:none;stroke-opacity:1"
       id="path2314" />
    <path
       d="m 100.9705,141.24698 h 0.466"
       style="display:inline;fill:none;stroke:#262626;stroke-width:0.198437;stroke-linecap:square;stroke-linejoin:round;stroke-miterlimit:10;stroke-dasharray:none;stroke-opacity:1"
       id="path2316" />
    <path
       d="m 100.9705,134.40738 h 0.466"
       style="display:inline;fill:none;stroke:#262626;stroke-width:0.198437;stroke-linecap:square;stroke-linejoin:round;stroke-miterlimit:10;stroke-dasharray:none;stroke-opacity:1"
       id="path2318" />
    <path
       d="m 128.3143,148.08648 h -0.466"
       style="display:inline;fill:none;stroke:#262626;stroke-width:0.198437;stroke-linecap:square;stroke-linejoin:round;stroke-miterlimit:10;stroke-dasharray:none;stroke-opacity:1"
       id="path2320" />
    <path
       d="m 128.3143,141.24698 h -0.466"
       style="display:inline;fill:none;stroke:#262626;stroke-width:0.198437;stroke-linecap:square;stroke-linejoin:round;stroke-miterlimit:10;stroke-dasharray:none;stroke-opacity:1"
       id="path2322" />
    <path
       d="m 128.3143,134.40738 h -0.466"
       style="display:inline;fill:none;stroke:#262626;stroke-width:0.198437;stroke-linecap:square;stroke-linejoin:round;stroke-miterlimit:10;stroke-dasharray:none;stroke-opacity:1"
       id="path2324" />
    <text
       style="font-variant:normal;font-weight:normal;font-size:2.56259px;font-family:Whitney;writing-mode:lr-tb;display:inline;fill:#262626;fill-opacity:1;fill-rule:nonzero;stroke:none;stroke-width:0.198437"
       id="text2328"
       x="96.707687"
       y="149.03644"
       xml:space="preserve"><tspan
         x="96.707687"
         y="149.03644"
         id="tspan2326"
         sodipodi:role="line"
         style="font-family:Whitney;stroke-width:0.352778">0.6</tspan></text>
    <text
       style="font-variant:normal;font-weight:normal;font-size:2.56259px;font-family:Whitney;writing-mode:lr-tb;display:inline;fill:#262626;fill-opacity:1;fill-rule:nonzero;stroke:none;stroke-width:0.198437"
       id="text2332"
       x="96.699112"
       y="142.19467"
       xml:space="preserve"><tspan
         x="96.699112"
         y="142.19467"
         id="tspan2330"
         sodipodi:role="line"
         style="font-family:Whitney;stroke-width:0.352778">0.8</tspan></text>
    <text
       style="font-variant:normal;font-weight:normal;font-size:2.56259px;font-family:Whitney;writing-mode:lr-tb;display:inline;fill:#262626;fill-opacity:1;fill-rule:nonzero;stroke:none;stroke-width:0.198437"
       id="text2336"
       x="99.104919"
       y="135.35527"
       xml:space="preserve"><tspan
         x="99.104919"
         y="135.35527"
         id="tspan2334"
         sodipodi:role="line"
         style="font-family:Whitney;stroke-width:0.352778">1</tspan></text>
    <path
       d="m 124.4713,133.40468 v -0.6804 l -1.449,0.7595 -0.724,-0.0213 -0.725,0.4912 -0.724,1.4179 -0.724,0.0289 v 0.4544 l -0.724,1.6875 -0.726,-0.2229 -1.448,0.5043 -0.725,2.0677 v 4.3858 l -1.4476,3.0612 v 1.242 l -1.449,-0.987 v -3.2896 l -0.7239,-4.0623 -1.449,-2.3125 -0.724,-0.8892 -0.725,0.1896 v -1.257 l -0.724,0.3411 -0.724,0.3792 -0.725,-0.7905 -0.724,-0.9742 -0.725,0.5333 -0.724,-0.7744 -0.724,-0.3696 -0.725,0.711 -0.724,0.0325"
       style="display:inline;fill:none;stroke:#377eb8;stroke-width:0.198437;stroke-linecap:butt;stroke-linejoin:round;stroke-miterlimit:10;stroke-dasharray:none;stroke-opacity:1"
       id="path2344" />
    <path
       d="m 124.4713,134.48928 -0.105,0.0117 -0.106,0.0122 -0.106,0.0128 -0.105,0.0128 -0.106,0.0133 -0.105,0.0142 -0.106,0.0143 -0.105,0.0146 -0.106,0.0154 -0.105,0.0159 -0.105,0.0161 -0.107,0.0168 -0.104,0.0178 -0.106,0.018 -0.105,0.0189 -0.107,0.0194 -0.105,0.0202 -0.106,0.0211 -0.106,0.0219 -0.105,0.0223 -0.106,0.0234 -0.105,0.0244 -0.106,0.0254 -0.105,0.0261 -0.106,0.0275 -0.105,0.0285 -0.106,0.0297 -0.105,0.031 -0.106,0.0322 -0.106,0.0336 -0.104,0.0349 -0.107,0.0368 -0.105,0.0381 -0.106,0.0399 -0.106,0.0417 -0.105,0.0438 -0.106,0.0458 -0.105,0.0477 -0.106,0.0504 -0.105,0.0527 -0.106,0.0552 -0.105,0.0581 -0.106,0.0609 -0.106,0.0641 -0.104,0.0676 -0.106,0.0709 -0.105,0.0751 -0.106,0.0789 -0.106,0.0832 -0.106,0.088 -0.106,0.0929 -0.105,0.0983 -0.106,0.1039 -0.105,0.1101 -0.106,0.1166 -0.105,0.1236 -0.106,0.1313 -0.105,0.1394 -0.106,0.1477 -0.106,0.1574 -0.105,0.1673 -0.105,0.1781 -0.105,0.1893 -0.107,0.2019 -0.105,0.2151 -0.106,0.2293 -0.106,0.2438 -0.105,0.2604 -0.106,0.2768 -0.105,0.295 -0.106,0.3136 -0.105,0.3333 -0.106,0.3537 -0.105,0.3746 -0.106,0.3961 -0.106,0.4171 -0.105,0.438 -0.106,0.4577 -0.1043,0.4762 -0.1061,0.4919 -0.1061,0.5042 -0.105,0.5125 -0.1061,0.5149 -0.105,0.5103 -0.1061,0.4979 -0.105,0.4757 -0.1061,0.445 -0.1051,0.402 -0.106,0.349 -0.1061,0.286 -0.1051,0.215 -0.106,0.136 -0.1051,0.052 -0.106,-0.032 -0.1051,-0.116 -0.105,-0.197 -0.1061,-0.27 -0.1051,-0.335 -0.106,-0.39 -0.1051,-0.435 -0.106,-0.4699 -0.1051,-0.4935 -0.1061,-0.5082 -0.105,-0.5142 -0.1061,-0.5134 -0.1061,-0.507 -0.105,-0.4952 -0.1061,-0.48 -0.105,-0.4625 -0.1061,-0.4427 -0.104,-0.4224 -0.1071,-0.4007 -0.1051,-0.3799 -0.105,-0.3587 -0.1061,-0.3379 -0.105,-0.3184 -0.1061,-0.2994 -0.105,-0.2811 -0.1061,-0.2641 -0.1051,-0.2476 -0.106,-0.2327 -0.1061,-0.2184 -0.1051,-0.2049 -0.106,-0.1924 -0.1051,-0.1808 -0.1061,-0.1697 -0.105,-0.1598 -0.105,-0.1499 -0.1061,-0.1414 -0.1051,-0.133 -0.106,-0.1254 -0.1051,-0.1183 -0.1061,-0.1116 -0.105,-0.1055 -0.1061,-0.0993 -0.105,-0.0944 -0.1061,-0.0891 -0.105,-0.0843 -0.1061,-0.0799 -0.1051,-0.076 -0.106,-0.0719 -0.1051,-0.0684 -0.1061,-0.065 -0.106,-0.0616 -0.1051,-0.0586 -0.105,-0.056 -0.1061,-0.0533 -0.105,-0.0507 -0.1061,-0.0485 -0.1061,-0.0463 -0.105,-0.0441 -0.1051,-0.0422 -0.106,-0.0404 -0.1061,-0.0387 -0.1051,-0.0369 -0.105,-0.0354 -0.1061,-0.034 -0.1061,-0.0326 -0.105,-0.0311 -0.1061,-0.0301 -0.105,-0.0286 -0.1061,-0.0276 -0.105,-0.0265 -0.1061,-0.0257 -0.1051,-0.0247 -0.106,-0.0236 -0.1051,-0.0227 -0.1061,-0.0219 -0.105,-0.0209 -0.1061,-0.0207 -0.105,-0.0197 -0.1061,-0.0189 -0.105,-0.0183 -0.1061,-0.0177 -0.1051,-0.0172 -0.106,-0.0162 -0.1051,-0.016 -0.1061,-0.0155 -0.105,-0.0151 -0.1061,-0.0142 -0.105,-0.0142 -0.1061,-0.0131 -0.105,-0.0133 -0.1061,-0.0127 -0.1051,-0.0123 -0.106,-0.0118 -0.1051,-0.0116 -0.106,-0.0115 -0.1051,-0.0106 -0.1061,-0.0108 -0.105,-0.0101 -0.1061,-0.01 -0.105,-0.01 -0.1061,-0.009 -0.1051,-0.009 -0.106,-0.009 -0.1051,-0.009 -0.105,-0.008 -0.1061,-0.008"
       style="display:inline;fill:none;stroke:#e41a1c;stroke-width:0.198437;stroke-linecap:butt;stroke-linejoin:round;stroke-miterlimit:10;stroke-dasharray:none;stroke-opacity:1"
       id="path2346" />
    <path
       style="display:inline;fill:none;stroke:#000000;stroke-width:0.198437;stroke-linecap:butt;stroke-linejoin:miter;stroke-miterlimit:4;stroke-dasharray:none;stroke-opacity:1;marker-end:url(#Arrow2Mend)"
       d="m 109.7263,142.50558 h 2.4655"
       id="path2348" />
    <path
       style="display:inline;fill:none;stroke:#000000;stroke-width:0.198437;stroke-linecap:butt;stroke-linejoin:miter;stroke-miterlimit:4;stroke-dasharray:none;stroke-opacity:1;marker-end:url(#Arrow2Mend)"
       d="m 119.7753,142.50558 h -2.465"
       id="path2350" />
    <text
       transform="rotate(-90,92.208438,4.6383436)"
       style="font-style:normal;font-variant:normal;font-weight:normal;font-stretch:normal;font-size:2.65304px;line-height:normal;font-family:Whitney;font-variant-ligatures:normal;font-variant-position:normal;font-variant-caps:normal;font-variant-numeric:normal;font-variant-alternates:normal;font-variant-east-asian:normal;font-feature-settings:normal;font-variation-settings:normal;text-indent:0;text-align:start;text-decoration-line:none;text-decoration-style:solid;text-decoration-color:#000000;letter-spacing:normal;word-spacing:normal;text-transform:none;writing-mode:lr-tb;direction:ltr;text-orientation:mixed;dominant-baseline:auto;baseline-shift:baseline;text-anchor:start;white-space:normal;shape-padding:0;shape-margin:0;inline-size:0;display:inline;vector-effect:none;fill:#262626;fill-opacity:1;fill-rule:nonzero;stroke:none;stroke-width:0.198437;stroke-linecap:butt;stroke-linejoin:miter;stroke-miterlimit:4;stroke-dasharray:none;stroke-dashoffset:0;stroke-opacity:1;-inkscape-stroke:none;stop-color:#000000"
       id="text2354"
       x="-51.803547"
       y="7.2822404"
       xml:space="preserve"><tspan
         x="-51.803547"
         y="7.2822404"
         sodipodi:role="line"
         style="font-style:normal;font-variant:normal;font-weight:normal;font-stretch:normal;font-size:2.65304px;line-height:normal;font-family:Whitney;font-variant-ligatures:normal;font-variant-position:normal;font-variant-caps:normal;font-variant-numeric:normal;font-variant-alternates:normal;font-variant-east-asian:normal;font-feature-settings:normal;font-variation-settings:normal;text-indent:0;text-align:start;text-decoration-line:none;text-decoration-style:solid;text-decoration-color:#000000;letter-spacing:normal;word-spacing:normal;text-transform:none;writing-mode:lr-tb;direction:ltr;text-orientation:mixed;dominant-baseline:auto;baseline-shift:baseline;text-anchor:start;white-space:normal;shape-padding:0;shape-margin:0;inline-size:0;vector-effect:none;fill:#262626;fill-opacity:1;stroke:none;stroke-width:0.198437;stroke-linecap:butt;stroke-linejoin:miter;stroke-miterlimit:4;stroke-dasharray:none;stroke-dashoffset:0;stroke-opacity:1;-inkscape-stroke:none;stop-color:#000000;stop-opacity:1"
         id="tspan2352">Transmission</tspan></text>
    <path
       style="fill:none;stroke:#000000;stroke-width:0.264583px;stroke-linecap:butt;stroke-linejoin:miter;stroke-opacity:1;marker-end:url(#Arrow2Mend)"
       d="m 81.685324,141.16794 h 8.881084"
       id="path2389"
       sodipodi:nodetypes="cc" />
    <g
       id="g572"
       transform="translate(86.1213,89.957)">
      <rect
         x="30.110289"
         y="43.206104"
         width="11.109264"
         height="7.0623298"
         rx="1.199445"
         style="opacity:0.8;fill:#ffffff;filter:url(#filter9483)"
         id="rect3013" />
      <text
         style="font-style:normal;font-variant:normal;font-weight:normal;font-stretch:normal;font-size:2.39889px;line-height:normal;font-family:Whitney;font-variant-ligatures:normal;font-variant-position:normal;font-variant-caps:normal;font-variant-numeric:normal;font-variant-alternates:normal;font-variant-east-asian:normal;font-feature-settings:normal;font-variation-settings:normal;text-indent:0;text-align:start;text-decoration-line:none;text-decoration-style:solid;text-decoration-color:#000000;letter-spacing:normal;word-spacing:normal;text-transform:none;writing-mode:lr-tb;direction:ltr;text-orientation:mixed;dominant-baseline:auto;baseline-shift:baseline;text-anchor:start;white-space:normal;shape-padding:0;shape-margin:0;inline-size:0;display:inline;opacity:1;vector-effect:none;fill:#262626;fill-opacity:1;fill-rule:nonzero;stroke:none;stroke-width:0.352778;stroke-linecap:butt;stroke-linejoin:miter;stroke-miterlimit:4;stroke-dasharray:none;stroke-dashoffset:0;stroke-opacity:1;-inkscape-stroke:none;stop-color:#000000;stop-opacity:1"
         id="text2342"
         x="31.240084"
         y="46.060749"
         xml:space="preserve"><tspan
           x="31.240084"
           y="46.060749"
           sodipodi:role="line"
           style="font-style:normal;font-variant:normal;font-weight:normal;font-stretch:normal;font-size:2.39889px;line-height:normal;font-family:Whitney;font-variant-ligatures:normal;font-variant-position:normal;font-variant-caps:normal;font-variant-numeric:normal;font-variant-alternates:normal;font-variant-east-asian:normal;font-feature-settings:normal;font-variation-settings:normal;text-indent:0;text-align:start;text-decoration-line:none;text-decoration-style:solid;text-decoration-color:#000000;letter-spacing:normal;word-spacing:normal;text-transform:none;writing-mode:lr-tb;direction:ltr;text-orientation:mixed;dominant-baseline:auto;baseline-shift:baseline;text-anchor:start;white-space:normal;shape-padding:0;shape-margin:0;inline-size:0;vector-effect:none;fill:#262626;fill-opacity:1;stroke:none;stroke-width:0.352778;stroke-linecap:butt;stroke-linejoin:miter;stroke-miterlimit:4;stroke-dasharray:none;stroke-dashoffset:0;stroke-opacity:1;-inkscape-stroke:none;stop-color:#000000;stop-opacity:1"
           id="tspan2338">172 MHz</tspan><tspan
           x="31.240084"
           y="49.059361"
           sodipodi:role="line"
           style="font-style:normal;font-variant:normal;font-weight:normal;font-stretch:normal;font-size:2.39889px;line-height:normal;font-family:Whitney;font-variant-ligatures:normal;font-variant-position:normal;font-variant-caps:normal;font-variant-numeric:normal;font-variant-alternates:normal;font-variant-east-asian:normal;font-feature-settings:normal;font-variation-settings:normal;text-indent:0;text-align:start;text-decoration-line:none;text-decoration-style:solid;text-decoration-color:#000000;letter-spacing:normal;word-spacing:normal;text-transform:none;writing-mode:lr-tb;direction:ltr;text-orientation:mixed;dominant-baseline:auto;baseline-shift:baseline;text-anchor:start;white-space:normal;shape-padding:0;shape-margin:0;inline-size:0;vector-effect:none;fill:#262626;fill-opacity:1;stroke:none;stroke-width:0.352778;stroke-linecap:butt;stroke-linejoin:miter;stroke-miterlimit:4;stroke-dasharray:none;stroke-dashoffset:0;stroke-opacity:1;-inkscape-stroke:none;stop-color:#000000;stop-opacity:1"
           id="tspan2340">FWHM</tspan></text>
    </g>
  </g>
</svg>
